<svg xmlns="http://www.w3.org/2000/svg" viewBox="0 0 32 32" width="32" height="32">
  <defs>
    <linearGradient id="grad1" x1="0%" y1="0%" x2="100%" y2="100%">
      <stop offset="0%" style="stop-color:#24292e;stop-opacity:1" />
      <stop offset="100%" style="stop-color:#0366d6;stop-opacity:1" />
    </linearGradient>
  </defs>
  
  <!-- Background circle -->
  <circle cx="16" cy="16" r="15" fill="url(#grad1)" stroke="#fff" stroke-width="1"/>
  
  <!-- Git branch icon -->
  <path d="M8 12c0-1.1.9-2 2-2s2 .9 2 2-.9 2-2 2-2-.9-2-2zm2-4c-2.2 0-4 1.8-4 4s1.8 4 4 4c.7 0 1.3-.2 1.9-.5l3.1 3.1c.2.2.4.3.7.3s.5-.1.7-.3c.4-.4.4-1 0-1.4L13.4 11.5c.3-.6.5-1.2.5-1.9 0-2.2-1.8-4-4-4zm8 8c0 1.1-.9 2-2 2s-2-.9-2-2 .9-2 2-2 2 .9 2 2zm-2 4c2.2 0 4-1.8 4-4s-1.8-4-4-4c-.7 0-1.3.2-1.9.5L9 8.4c-.2-.2-.4-.3-.7-.3s-.5.1-.7.3c-.4.4-.4 1 0 1.4l3.1 3.1c-.3.6-.5 1.2-.5 1.9 0 2.2 1.8 4 4 4z" fill="#fff"/>
  
  <!-- Connection line -->
  <path d="M12 12h8" stroke="#fff" stroke-width="1.5" stroke-linecap="round"/>
</svg>
